# xmcd
#
# Track frame offsets: 
#        150
#        12869
#        32352
#        46629
#        66967
#        81017
#        96158
#        112346
#        132273
#        151953
#        169079
#        185205
#
# Disc length: 2646 seconds
#
# Revision: 4
# Processed by: cddbd v1.5.2PL0 Copyright (c) Steve Scherf et al.
# Submitted via: ExactAudioCopy v0.90b4
#
DISCID=970a540c
DTITLE=Son Volt - American Central Dust
DYEAR=2009
DGENRE=Folk/Rock
TTITLE0=Dynamite
TTITLE1=Down to the Wire
TTITLE2=Roll On
TTITLE3=Cocaine and Ashes
TTITLE4=Dust of Daylight
TTITLE5=When the Wheels Don't Move
TTITLE6=No Turning Back
TTITLE7=Pushed Too Far
TTITLE8=Exiles
TTITLE9=Sultana
TTITLE10=Strength and Doubt
TTITLE11=Jukebox of Steel
EXTD=
EXTT0=
EXTT1=
EXTT2=
EXTT3=
EXTT4=
EXTT5=
EXTT6=
EXTT7=
EXTT8=
EXTT9=
EXTT10=
EXTT11=
PLAYORDER=
